<?xml version="1.0" standalone="no"?>
<!DOCTYPE svg PUBLIC "-//W3C//DTD SVG 20010904//EN"
 "http://www.w3.org/TR/2001/REC-SVG-20010904/DTD/svg10.dtd">
<svg version="1.0" xmlns="http://www.w3.org/2000/svg"
 width="100.000000pt" height="100.000000pt" viewBox="0 0 100.000000 100.000000"
 preserveAspectRatio="xMidYMid meet">

<g transform="translate(0.000000,100.000000) scale(0.100000,-0.100000)"
fill="#000000" stroke="none">
<path d="M430 913 c-75 -27 -109 -62 -124 -126 l-7 -28 52 3 52 3 13 46 c8 26
27 61 43 78 27 29 28 31 8 30 -12 0 -29 -3 -37 -6z"/>
<path d="M541 889 c16 -17 35 -52 43 -78 l13 -46 51 -3 50 -3 -10 39 c-16 63
-93 122 -159 122 -14 0 -12 -6 12 -31z"/>
<path d="M475 846 c-9 -13 -20 -38 -25 -55 l-9 -31 59 0 59 0 -9 31 c-11 38
-37 79 -50 79 -5 0 -17 -11 -25 -24z"/>
<path d="M244 701 c-18 -11 -35 -24 -39 -31 -10 -17 13 -39 56 -52 22 -6 39
-16 39 -22 0 -6 18 -47 40 -91 44 -88 51 -142 23 -168 -10 -8 -56 -33 -103
-54 -54 -25 -97 -53 -117 -76 -32 -36 -51 -96 -38 -116 9 -15 781 -15 790 0
13 20 -6 80 -38 116 -21 24 -66 52 -134 84 l-103 48 0 47 c0 36 9 64 36 113
31 57 37 76 39 143 l3 78 -211 0 c-191 0 -215 -2 -243 -19z m401 -50 c-3 -11
0 -29 7 -40 10 -17 9 -25 -8 -48 -12 -16 -25 -40 -29 -53 -4 -14 -14 -36 -22
-48 -10 -16 -14 -43 -11 -83 3 -57 2 -59 -26 -69 -37 -13 -75 -13 -113 0 -29
10 -29 12 -25 68 3 46 0 65 -17 93 -11 18 -21 40 -21 47 0 8 -9 25 -20 39 -11
14 -20 30 -20 34 0 5 28 9 63 9 72 0 168 23 212 50 38 23 37 23 30 1z"/>
</g>
</svg>
