<?xml version="1.0" standalone="no"?>
<!DOCTYPE svg PUBLIC "-//W3C//DTD SVG 20010904//EN"
 "http://www.w3.org/TR/2001/REC-SVG-20010904/DTD/svg10.dtd">
<svg version="1.0" xmlns="http://www.w3.org/2000/svg"
 width="100.000000pt" height="100.000000pt" viewBox="0 0 100.000000 100.000000"
 preserveAspectRatio="xMidYMid meet">

<g transform="translate(0.000000,100.000000) scale(0.100000,-0.100000)"
fill="#000000" stroke="none">
<path d="M212 868 c-8 -8 -12 -63 -12 -180 0 -209 -18 -230 -22 -27 -3 122 -5
143 -20 153 -13 8 -23 8 -35 0 -16 -10 -18 -32 -21 -187 l-2 -176 -30 17 c-34
19 -63 9 -68 -24 -3 -24 157 -252 190 -271 14 -7 60 -12 114 -13 78 0 95 3
118 21 l27 21 25 -23 24 -22 24 22 25 23 27 -21 c23 -18 40 -21 118 -21 54 1
100 6 114 13 33 19 193 247 190 271 -5 33 -34 43 -68 24 l-30 -17 -2 176 c-3
155 -5 177 -20 187 -13 8 -23 8 -35 0 -16 -10 -18 -31 -21 -153 -1 -80 -7
-141 -12 -141 -6 0 -11 72 -12 171 -3 151 -5 173 -20 183 -13 8 -23 8 -35 0
-16 -10 -18 -32 -21 -183 -1 -99 -6 -171 -12 -171 -5 0 -11 64 -12 151 -3 132
-5 153 -20 163 -13 8 -23 8 -35 0 -16 -10 -18 -31 -21 -163 -1 -86 -7 -151
-12 -151 -5 0 -11 50 -12 111 -3 94 -6 114 -20 123 -13 8 -23 8 -35 0 -15 -10
-19 -32 -23 -155 -4 -119 -8 -144 -20 -144 -12 0 -16 25 -20 144 -4 123 -8
145 -22 155 -13 8 -23 8 -35 0 -15 -9 -18 -29 -21 -123 -1 -61 -7 -111 -12
-111 -5 0 -11 65 -12 151 -3 132 -5 153 -20 163 -13 8 -23 8 -35 0 -16 -10
-18 -31 -21 -163 -4 -211 -22 -198 -22 17 0 172 -4 192 -40 192 -9 0 -21 -5
-28 -12z m259 -445 c27 -16 31 -16 58 0 39 23 60 21 88 -5 39 -36 30 -63 -47
-142 l-70 -71 -70 71 c-76 78 -85 102 -48 141 26 27 50 29 89 6z"/>
</g>
</svg>
