<?xml version="1.0" standalone="no"?>
<!DOCTYPE svg PUBLIC "-//W3C//DTD SVG 20010904//EN"
 "http://www.w3.org/TR/2001/REC-SVG-20010904/DTD/svg10.dtd">
<svg version="1.0" xmlns="http://www.w3.org/2000/svg"
 width="52.000000pt" height="52.000000pt" viewBox="0 0 52.000000 52.000000"
 preserveAspectRatio="xMidYMid meet">

<g transform="translate(0.000000,52.000000) scale(0.100000,-0.100000)"
fill="#000000" stroke="none">
<path d="M85 475 c-33 -32 -33 -78 0 -110 49 -50 135 -15 135 55 0 41 -39 80
-80 80 -19 0 -40 -9 -55 -25z"/>
<path d="M325 475 c-16 -15 -25 -36 -25 -55 0 -19 9 -40 25 -55 15 -16 36 -25
55 -25 70 0 105 86 55 135 -15 16 -36 25 -55 25 -19 0 -40 -9 -55 -25z"/>
<path d="M65 301 c-55 -25 -65 -52 -65 -176 l0 -105 79 0 79 0 5 30 c9 42 60
73 110 66 46 -5 87 -40 87 -73 0 -22 3 -23 80 -23 l80 0 0 109 c0 103 -2 111
-25 140 -14 16 -42 35 -62 42 -41 13 -116 6 -149 -16 -19 -12 -26 -12 -60 6
-48 24 -107 24 -159 0z m235 -61 c11 -11 20 -29 20 -40 0 -26 -34 -60 -60 -60
-26 0 -60 34 -60 60 0 11 9 29 20 40 11 11 29 20 40 20 11 0 29 -9 40 -20z"/>
</g>
</svg>
